# AST/ASF file generated using VICON BodyLanguage
# -----------------------------------------------
:version 1.10
:name VICON
:units
  mass 1.0
  length 0.45
  angle deg
:documentation
   .ast/.asf automatically generated from VICON data using
   VICON BodyBuilder and BodyLanguage model FoxedUp or BRILLIANT.MOD
:root
   order TX TY TZ RX RY RZ
   axis XYZ
   position 0 0 0  
   orientation 0 0 0 
:bonedata
  begin
     id 1 
     name lhipjoint
     direction 0.61886 -0.69539 0.365302 
     length 2.20474 
     axis 0 0 0  XYZ
  end
  begin
     id 2 
     name lfemur
     direction 0.34202 -0.939693 0  
     length 6.65149  
     axis 0 0 20  XYZ
    dof rx ry rz
    limits (-160.0 20.0)
           (-70.0 70.0)
           (-60.0 70.0)
  end
  begin
     id 3 
     name ltibia
     direction 0.34202 -0.939693 0   
     length 6.35814   
     axis 0 0 20   XYZ
    dof rx
    limits (-10.0 170.0)
  end
  begin
     id 4 
     name lfoot
     direction 0.101224 -0.278109 0.955201   
     length 2.18766   
     axis -90 7.62852e-016 20   XYZ
    dof rx rz
    limits (-45.0 90.0)
           (-70.0 20.0)
  end
  begin
     id 5 
     name ltoes
     direction 1.53524e-011 -4.21877e-011 1   
     length 1.09206   
     axis -90 7.62852e-016 20   XYZ
    dof rx
    limits (-90.0 20.0)
  end
  begin
     id 6 
     name rhipjoint
     direction -0.600207 -0.708087 0.371972   
     length 2.1652  
     axis 0 0 0  XYZ 
  end
  begin
     id 7 
     name rfemur
     direction -0.34202 -0.939693 0   
     length 6.54691   
     axis 0 0 -20   XYZ
    dof rx ry rz
    limits (-160.0 20.0)
           (-70.0 70.0)
           (-70.0 60.0)
  end
  begin
     id 8 
     name rtibia
     direction -0.34202 -0.939693 0   
     length 6.37474   
     axis 0 0 -20   XYZ
    dof rx
    limits (-10.0 170.0)
 end
 begin
     id 9 
     name rfoot
     direction -0.111266 -0.3057 0.945604   
     length 2.00903  
     axis -90 -7.62852e-016 -20   XYZ
    dof rx rz
    limits (-45.0 90.0)
           (-20.0 70.0)
  end
  begin
     id 10 
     name rtoes
     direction -1.5362e-011 -4.21913e-011 1   
     length 1.00221   
     axis -90 -7.62852e-016 -20   XYZ
    dof rx
    limits (-90.0 20.0)
  end
  begin
     id 11 
     name lowerback
     direction -0.0224561 0.999731 -0.00577314   
     length 2.10409   
     axis 0 0 0   XYZ
    dof rx ry rz
    limits (-20.0 45.0)
           (-30.0 30.0)
           (-30.0 30.0)
  end
  begin
     id 12 
     name upperback
     direction 0.0213126 0.999185 -0.0342817   
     length 2.09783   
     axis 0 0 0   XYZ
    dof rx ry rz
    limits (-20.0 45.0)
           (-30.0 30.0)
           (-30.0 30.0)
  end
  begin
     id 13 
     name thorax
     direction 0.0312356 0.999036 -0.0308451   
     length 2.09788   
     axis 0 0 0   XYZ
    dof rx ry rz
    limits (-20.0 45.0)
           (-30.0 30.0)
           (-30.0 30.0)
  end
  begin
     id 14 
     name lowerneck
     direction -0.0114419 0.996481 0.0830329   
     length 1.38575   
     axis 0 0 0   XYZ
    dof rx ry rz
    limits (-20.0 45.0)
           (-30.0 30.0)
           (-30.0 30.0)
  end
  begin
     id 15 
     name upperneck
     direction -0.0075675 0.996187 -0.0869092   
     length 1.39401   
     axis 0 0 0   XYZ
    dof rx ry rz
    limits (-20.0 45.0)
           (-30.0 30.0)
           (-30.0 30.0)
  end
  begin
     id 16
     name head
     direction -0.00222073 0.999264 -0.0382974  
     length 1.3964  
     axis 0 0 0   XYZ
    dof rx ry rz
    limits (-20.0 45.0)
           (-30.0 30.0)
           (-30.0 30.0)
  end
  begin
     id 17 
     name lclavicle
     direction 0.965962 0.222138 0.132556  
     length 2.81514  
     axis 0 0 0   XYZ
    dof ry rz
    limits (-20.0 10.0)
           (0.0 20.0)
  end
  begin
     id 18 
     name lhumerus
     direction 1 -4.48972e-011 7.03471e-018   
     length 4.47366   
     axis 180 -30 -90   XYZ
    dof rx ry rz
    limits (-60.0 90.0)
           (-90.0 90.0)
           (-90.0 90.0)
  end
  begin
     id 19
     name lradius
     direction 1 -4.48951e-011 -6.22192e-028   
     length 3.19948   
     axis 180 -30 -90   XYZ
    dof rx
    limits (-10.0 170.0)
  end
  begin
     id 20
     name lwrist
     direction 1 -4.48967e-011 -1.24264e-027   
     length 1.59974   
     axis 1.40095e-015 90 90   XYZ
    dof ry
    limits (-180.0 0.0)
 end
  begin
     id 21 
     name lhand
     direction 1 -4.4897e-011 -2.48528e-027   
     length 0.492667   
     axis 1.58582e-015 90 90   XYZ
    dof rx rz
    limits (-90.0 90.0)
           (-45.0 45.0)
  end
  begin
     id 22 
     name lfingers
     direction 1 -4.48996e-011 -4.97056e-027   
     length 0.397201   
     axis 3.17164e-015 90 90   XYZ
    dof rx
    limits (0.0 90.0)
  end
  begin
     id 23
     name lthumb
     direction 0.707107 -6.34981e-011 0.707107   
     length 0.570303   
     axis -90 45 2.85299e-015   XYZ
    dof rx rz
    limits (-45.0 45.0)
           (-45.0 45.0)
  end
  begin
     id 24 
     name rclavicle
     direction -0.961164 0.229034 0.153972   
     length 3.09348  
     axis 0 0 0   XYZ 
    dof ry rz
    limits (-10.0 20.0)
           (-20.0 0.0)
  end
  begin
     id 25 
     name rhumerus
     direction -1 -4.48971e-011 -9.06263e-028  
     length 4.3269   
     axis 180 30 90   XYZ
    dof rx ry rz
    limits (-90.0 60.0)
           (-90.0 90.0)
           (-90.0 90.0)
  end
  begin
     id 26 
     name rradius
     direction -1 -4.48953e-011 1.44659e-027   
     length 3.1896   
     axis 180 30 90   XYZ
    dof rx
    limits (-10.0 170.0)
  end
  begin
     id 27 
     name rwrist
     direction -1 -4.48988e-011 -1.24264e-027   
     length 1.5948   
     axis 1.40095e-015 -90 -90   XYZ
    dof ry
    limits (-180.0 0.0)
  end
  begin
     id 28
     name rhand
     direction -1 -4.49033e-011 -2.48528e-027   
     length 0.464496   
     axis 1.58582e-015 -90 -90   XYZ
    dof rx rz
    limits (-90.0 90.0)
           (-45.0 45.0)
  end
  begin
     id 29
     name rfingers
     direction -1 -4.48905e-011 -4.97056e-027   
     length 0.374489   
     axis 3.17164e-015 -90 -90   XYZ
    dof rx
    limits (0.0 90.0)
  end
  begin
     id 30
     name rthumb
     direction -0.707107 -6.34909e-011 0.707107   
     length 0.537693   
     axis -90 -45 -2.85299e-015   XYZ
    dof rx rz
    limits (-45.0 45.0)
           (-45.0 45.0)
  end
:hierarchy
  begin
    root lhipjoint rhipjoint lowerback
    lhipjoint lfemur
    lfemur ltibia
    ltibia lfoot
    lfoot ltoes
    rhipjoint rfemur
    rfemur rtibia
    rtibia rfoot
    rfoot rtoes
    lowerback upperback
    upperback thorax
    thorax lowerneck lclavicle rclavicle
    lowerneck upperneck
    upperneck head
    lclavicle lhumerus
    lhumerus lradius
    lradius lwrist
    lwrist lhand lthumb
    lhand lfingers
    rclavicle rhumerus
    rhumerus rradius
    rradius rwrist
    rwrist rhand rthumb
    rhand rfingers
  end

#!OML:ASF G:\acrobat\cartwheel_test 2\Patient 1\Session 2\acrobat4.ASF
:FULLY-SPECIFIED
:DEGREES
1738
root 6.83132 14.2333 -18.1295 366.264 174.615 0.0420451
lowerback 0.444594 -2.11538 -4.71069
upperback 1.94051 -2.75795 3.6324
thorax 2.16591 -1.46471 6.37765
lowerneck -5.99282 -6.09451 -2.07899
upperneck 20.6644 -7.18495 0.126942
head 7.40342 -3.20329 -0.149088
rclavicle 1.60022e-014 -4.6118e-014
rhumerus -37.1396 -24.2406 -29.255
rradius 64.1326
rwrist 11.9412
rhand -33.3573 680.706
rfingers 7.12502
rthumb -6.55913 -69.1724
lclavicle 1.60022e-014 -4.6118e-014
lhumerus -33.3978 25.0748 29.1688
lradius 64.4081
lwrist 7.47809
lhand -57.4588 -367.095
lfingers 7.12502
lthumb -29.7295 20.541
rfemur -183.935 39.7605 564.561
rtibia -324.624
rfoot -45.3202 -31.4829
rtoes 51.3891
lfemur -385.927 4.75192 -384.912
ltibia 55.7532
lfoot 144.131 -182.536
ltoes -18.4528
1739
root 6.82454 14.2359 -18.1073 366.299 174.404 0.120832
lowerback 0.533553 -2.11954 -4.62526
upperback 1.88637 -2.76693 3.64607
thorax 2.05714 -1.46313 6.34722
lowerneck -5.915 -6.06943 -2.06758
upperneck 20.781 -7.13304 0.102347
head 7.42577 -3.1729 -0.153056
rclavicle -4.57205e-015 4.77083e-015
rhumerus -37.3239 -24.1006 -29.1879
rradius 64.1895
rwrist 11.988
rhand -33.3308 679.833
rfingers 7.12502
rthumb -6.53359 -70.0462
lclavicle -4.57205e-015 4.77083e-015
lhumerus -33.3154 24.9267 29.1992
lradius 64.5051
lwrist 7.57909
lhand -57.5204 -367.085
lfingers 7.12502
lthumb -29.7883 20.5405
rfemur -183.755 39.4348 564.708
rtibia -324.643
rfoot -45.1596 -31.4938
rtoes 51.3976
lfemur -386.033 4.89952 -384.867
ltibia 55.6904
lfoot 143.944 -182.172
ltoes -19.4717
1740
root 6.81979 14.2381 -18.0864 366.243 174.215 0.148724
lowerback 0.56638 -2.13829 -4.65036
upperback 1.93674 -2.79055 3.67976
thorax 2.09772 -1.47708 6.39703
lowerneck -5.9534 -6.02915 -2.17926
upperneck 20.9522 -7.05851 0.152539
head 7.49469 -3.13446 -0.115666
rclavicle -1.17283e-014 -1.82882e-014
rhumerus -37.3947 -24.0248 -29.1204
rradius 64.2424
rwrist 11.9904
rhand -33.3454 679.335
rfingers 7.12502
rthumb -6.54762 -70.5439
lclavicle -1.17283e-014 -1.82882e-014
lhumerus -33.2328 25.0257 29.2814
lradius 64.6315
lwrist 7.60184
lhand -57.6616 -366.192
lfingers 7.12502
lthumb -29.9231 21.4091
rfemur -183.711 39.2983 564.785
rtibia -324.612
rfoot -45.3628 -31.4676
rtoes 51.436
lfemur -385.972 4.98669 -384.82
ltibia 55.5977
lfoot 143.796 -182.189
ltoes -19.6288
1741
root 6.81676 14.2412 -18.067 366.198 174.048 -0.0105835
lowerback 0.504532 -2.14998 -4.84397
upperback 2.02758 -2.80387 3.63647
thorax 2.23695 -1.49408 6.45787
lowerneck -6.06495 -5.99843 -2.26913
upperneck 21.0956 -7.016 0.249341
head 7.56878 -3.10848 -0.0714625
rclavicle 1.80894e-014 -7.79236e-014
rhumerus -37.4657 -24.1325 -29.028
rradius 64.2335
rwrist 12.0621
rhand -33.0788 679.497
rfingers 7.12502
rthumb -6.29033 -70.39
lclavicle 1.80894e-014 -7.79236e-014
lhumerus -33.0216 25.2026 29.3829
lradius 64.6589
lwrist 7.49476
lhand -57.6231 -365.374
lfingers 7.12502
lthumb -29.8862 22.2342
rfemur -183.657 39.2868 564.712
rtibia -324.521
rfoot -45.7603 -31.4446
rtoes 51.4706
lfemur -385.899 5.07146 -384.968
ltibia 55.4598
lfoot 143.726 -182.256
ltoes -19.8626
1742
root 6.81585 14.2416 -18.0492 366.207 173.863 -0.208258
lowerback 0.356602 -2.13715 -5.0435
upperback 2.1234 -2.78195 3.54906
thorax 2.42248 -1.49574 6.47304
lowerneck -6.25232 -5.98826 -2.31122
upperneck 21.1785 -7.02446 0.37402
head 7.6363 -3.10512 -0.0321816
rclavicle 7.45443e-015 -1.35174e-014
rhumerus -37.5889 -24.3471 -28.9238
rradius 64.2746
rwrist 12.2712
rhand -32.4729 679.594
rfingers 7.12502
rthumb -5.70535 -70.3097
lclavicle 7.45443e-015 -1.35174e-014
lhumerus -32.7806 25.309 29.4982
lradius 64.6787
lwrist 7.436
lhand -57.3503 -365.815
lfingers 7.12502
lthumb -29.6259 21.8391
rfemur -183.581 39.1221 564.59
rtibia -324.384
rfoot -45.8654 -31.4724
rtoes 51.4763
lfemur -385.89 5.02949 -385.176
ltibia 55.3042
lfoot 143.602 -182.098
ltoes -20.0456
1743
root 6.81679 14.2427 -18.0318 366.246 173.711 -0.318733
lowerback 0.221586 -2.13717 -5.16713
upperback 2.16605 -2.77773 3.49165
thorax 2.54577 -1.50186 6.47744
lowerneck -6.38115 -5.95996 -2.33936
upperneck 21.2608 -6.9981 0.456986
head 7.69055 -3.08627 -0.00351285
rclavicle -5.46658e-015 7.95139e-015
rhumerus -37.6827 -24.5316 -28.8882
rradius 64.2112
rwrist 12.3513
rhand -32.526 679.986
rfingers 7.12502
rthumb -5.75659 -69.9154
lclavicle -5.46658e-015 7.95139e-015
lhumerus -32.6625 25.3413 29.5577
lradius 64.6903
lwrist 7.43439
lhand -57.0144 -366.503
lfingers 7.12502
lthumb -29.3052 21.208
rfemur -183.52 38.9087 564.543
rtibia -324.24
rfoot -45.5573 -31.5507
rtoes 51.384
lfemur -385.934 4.87676 -385.268
ltibia 55.1642
lfoot 143.389 -182.195
ltoes -19.6827
1744
root 6.81934 14.2418 -18.0137 366.273 173.609 -0.460191
lowerback 0.172422 -2.15211 -5.32503
upperback 2.14229 -2.79842 3.41875
thorax 2.55632 -1.5167 6.48851
lowerneck -6.38555 -5.9146 -2.32346
upperneck 21.3309 -6.94907 0.539566
head 7.71619 -3.05088 0.0243188
rclavicle -4.56211e-014 -4.77083e-015
rhumerus -37.8151 -24.6278 -28.8653
rradius 64.0968
rwrist 12.2098
rhand -32.8777 680.9
rfingers 7.12502
rthumb -6.09617 -68.992
lclavicle -4.56211e-014 -4.77083e-015
lhumerus -32.65 25.2916 29.5345
lradius 64.7095
lwrist 7.42739
lhand -56.6609 -367.373
lfingers 7.12502
lthumb -28.9677 20.3966
rfemur -183.458 38.7537 564.464
rtibia -324.153
rfoot -45.0811 -31.6759
rtoes 51.1895
lfemur -385.988 4.69346 -385.371
ltibia 55.0553
lfoot 143.207 -182.557
ltoes -19.5519
